<?xml version="1.0" encoding="utf-8"?>
<svg xmlns="http://www.w3.org/2000/svg" height="256" width="256" viewBox="0 0 256 256">
  <g>
    <ellipse cy="128" cx="128" ry="128" rx="128" fill="#0847AE" />
    <path id="path1" transform="rotate(0,128,128) translate(59,84.7413036823273) scale(4.3125,4.3125)  " fill="#F9F9F9" d="M8.5849609,16.977343L8.0349731,18.517366 0,17.803364z M26.184998,16.069321C26.550964,16.077331 26.897949,16.19533 27.177002,16.434334 27.92395,17.070347 27.906982,18.315367 27.138,19.216387 26.369995,20.117405 25.142944,20.332405 24.396973,19.696392 23.651001,19.060392 23.668945,17.814365 24.436951,16.913347 24.916992,16.351339 25.575989,16.05632 26.184998,16.069321z M12.427979,16.069321C12.793945,16.077331 13.140991,16.19533 13.419983,16.434334 14.166992,17.070347 14.148987,18.315367 13.380981,19.216387 12.612,20.117405 11.385986,20.332405 10.639954,19.696392 9.8939819,19.060392 9.9119873,17.814365 10.679993,16.913347 11.159973,16.351339 11.81897,16.05632 12.427979,16.069321z M10.730957,14.116294C10.730957,14.116294,10.180969,15.326309,10.180969,15.767312L6.0539551,15.271315 6.1089478,14.941307z M12.684998,0L15.655945,2.5590567 32,4.2100906 29.276001,11.721242 16.316956,11.721242 14.747986,14.28129 28.120972,14.28129 27.872986,15.684318 11.858948,15.684318 14.417969,11.391233 13.592957,3.1370711 11.280945,1.6510339C11.280945,1.6510339,11.30896,0.46801172,12.684998,0z" />
  </g>
</svg>

