<?xml version="1.0" encoding="utf-8"?>
<svg xmlns="http://www.w3.org/2000/svg" height="128" width="128" viewBox="0 0 128 128">
  <g>
    <path id="path1" transform="rotate(0,64,64) translate(36.3741371660158,30) scale(2.12506637184494,2.12506637184494)  " fill="#5F6368" d="M2,12.999001L2,29.999 24,29.999 24,12.999001 21,12.999001 21,14.999001 19,14.999001 19,12.999001 6.9999995,12.999001 6.9999995,14.999001 5,14.999001 5,12.999001z M13,2C9.6909995,2,6.9999995,4.4729996,6.9999995,7.5130005L6.9999995,10.999001 19,10.999001 19,7.5130005C19,4.4729996,16.31,2,13,2z M13,0C17.411,0,21,3.3700008,21,7.5130005L21,10.999001 26,10.999001 26,29.999C26,31.104,25.104,31.999,24,31.999L2,31.999C0.89599991,31.999,0,31.104,0,29.999L0,10.999001 5,10.999001 5,7.5130005C5,3.3700008,8.5889997,0,13,0z" />
  </g>
</svg>

